<svg width="587" height="128" viewBox="0 0 587 128" fill="none" xmlns="http://www.w3.org/2000/svg">
<path d="M64 123.871C97.0658 123.871 123.871 97.0658 123.871 64C123.871 30.9342 97.0658 4.12903 64 4.12903C30.9342 4.12903 4.12904 30.9342 4.12904 64C4.12904 97.0658 30.9342 123.871 64 123.871Z" fill="#60FFD9"/>
<path d="M70.1936 72.2581L47.2553 41.6621C46.8495 41.1664 45.9949 41.1664 45.589 41.6621L16.7515 76.7789C16.4951 77.0886 16.4418 77.5122 16.6233 77.8628C16.805 78.2249 17.1788 78.4516 17.5847 78.4516H23.993V76.3863V74.3205C23.993 73.7523 24.4736 73.2878 25.0611 73.2878C25.6485 73.2878 26.1291 73.7523 26.1291 74.3205V76.3863V78.4516H29.3333V76.3863V74.3205C29.3333 73.7523 29.8139 73.2878 30.4014 73.2878C30.9888 73.2878 31.4694 73.7523 31.4694 74.3205V76.3863V78.4516H34.6736V76.3863V74.3205C34.6736 73.7523 35.1542 73.2878 35.7417 73.2878C36.3291 73.2878 36.8097 73.7523 36.8097 74.3205V76.3863V78.4516H40.0139V76.3863V74.3205C40.0139 73.7523 40.4945 73.2878 41.0819 73.2878C41.6693 73.2878 42.15 73.7523 42.15 74.3205V76.3863V78.4516H45.3541V76.3863V74.3205C45.3541 73.7523 45.8348 73.2878 46.4222 73.2878C47.0096 73.2878 47.4901 73.7523 47.4901 74.3205V76.3863V78.4516H50.6945V76.3863V74.3205C50.6945 73.7523 51.175 73.2878 51.7624 73.2878C52.3499 73.2878 52.8304 73.7523 52.8304 74.3205V76.3863V78.4516H56.0347V76.3863V74.3205C56.0347 73.7523 56.5153 73.2878 57.1027 73.2878C57.6901 73.2878 58.1707 73.7523 58.1707 74.3205V76.3863V78.4516H61.3754V76.3863V74.3205C61.3754 73.7523 61.8555 73.2878 62.443 73.2878C63.0308 73.2878 63.5109 73.7523 63.5109 74.3205V76.3863V78.4516H66.7153V76.3863V74.3205C66.7153 73.7523 67.1962 73.2878 67.7832 73.2878C68.3707 73.2878 68.8516 74.1355 68.8516 74.1355V75.1573V76.3863V78.4516L70.1936 78.4516V72.2581ZM37.8778 69.1563C37.4719 69.1563 37.0981 68.9292 36.9165 68.5679C36.735 68.2166 36.7883 67.7929 37.0446 67.4832L45.5892 57.1549C45.995 56.659 46.8495 56.659 47.2553 57.1549L55.7998 67.4832C56.0562 67.7929 56.1095 68.2166 55.9278 68.5679C55.7462 68.9292 55.3726 69.1563 54.9668 69.1563H37.8778Z" fill="black"/>
<path d="M111.233 76.779L80.509 41.6622C80.0768 41.1664 79.1661 41.1664 78.7334 41.6622L53.6774 72.2581C57.6043 67.553 57.6043 67.553 53.6774 72.2581V78.4516H55.7247V76.3863V74.3205C55.7247 73.7524 56.2374 73.2879 56.863 73.2879C57.4891 73.2879 58.0009 73.7524 58.0009 74.3205V76.3863V78.4516H61.4146V76.3863V74.3205C61.4146 73.7524 61.9264 73.2879 62.5525 73.2879C63.1786 73.2879 63.6908 73.7524 63.6908 74.3205V76.3863V78.4516H67.1041V76.3863V74.3205C67.1041 73.7524 67.6163 73.2879 68.2424 73.2879C68.8685 73.2879 69.3803 73.7524 69.3803 74.3205V76.3863V78.4516H72.794V76.3863V74.3205C72.794 73.7524 73.3058 73.2879 73.9315 73.2879C74.5576 73.2879 75.0703 73.7524 75.0703 74.3205V76.3863V78.4516H78.484V76.3863V74.3205C78.484 73.7524 78.9958 73.2879 79.6214 73.2879C80.2475 73.2879 80.7593 73.7524 80.7593 74.3205V76.3863V78.4516H84.173V76.3863V74.3205C84.173 73.7524 84.6857 73.2879 85.3109 73.2879C85.937 73.2879 86.4493 73.7524 86.4493 74.3205V76.3863V78.4516H89.8629V76.3863V74.3205C89.8629 73.7524 90.3748 73.2879 91.0009 73.2879C91.6269 73.2879 92.1387 73.7524 92.1387 74.3205V76.3863V78.4516H95.5524V76.3863V74.3205C95.5524 73.7524 96.0647 73.2879 96.6903 73.2879C97.316 73.2879 97.8287 73.7524 97.8287 74.3205V76.3863V78.4516H101.242V76.3863V74.3205C101.242 73.7524 101.754 73.2879 102.38 73.2879C103.006 73.2879 103.518 73.7524 103.518 74.3205V76.3863V78.4516H110.346C110.778 78.4516 111.176 78.2249 111.37 77.8628C111.563 77.5123 111.507 77.0886 111.233 76.779ZM70.5178 69.1563C70.0856 69.1563 69.6872 68.9293 69.4937 68.568C69.3007 68.2166 69.3577 67.7929 69.6307 67.4833L78.7334 57.1549C79.1661 56.659 80.0768 56.659 80.509 57.1549L89.6126 67.4833C89.8856 67.7929 89.9425 68.2166 89.7487 68.568C89.5552 68.9293 89.1573 69.1563 88.7246 69.1563H70.5178Z" fill="black"/>
<path d="M186.616 42.008L196.001 68.129L206.138 42.008H215.245V94.2503H208.117V73.4034L208.711 51.5882L198.06 79.7183H193.862L184.082 52.3414L184.676 73.4034V94.2503H177.548V42.008H186.616ZM271.164 70.1026H247.089V88.617H275.163V94.2503H239.763V42.008H274.807V47.6771H247.089V64.4693H271.164V70.1026ZM339.199 47.6771H321.381V94.2503H314.253V47.6771H296.434V42.008H339.199V47.6771ZM380.271 72.9375H368.746V94.2503H361.46V42.008H378.369C381.06 42.0558 383.594 42.4026 385.97 43.0485C388.346 43.6944 390.417 44.6631 392.189 45.9549C393.983 47.2465 395.381 48.8732 396.386 50.8345C397.414 52.7723 397.93 55.0564 397.93 57.6877C397.93 59.3861 397.653 60.9409 397.098 62.3523C396.571 63.7636 395.831 65.0433 394.88 66.1916C393.929 67.3396 392.797 68.3566 391.476 69.2416C390.155 70.1265 388.704 70.8802 387.121 71.5021L399.355 93.8194L399.316 94.2503H391.596L380.271 72.9375ZM368.746 67.4835H378.565C380.201 67.4595 381.746 67.2323 383.201 66.8014C384.653 66.3473 385.92 65.7014 387.002 64.864C388.111 64.027 388.981 63.01 389.612 61.8141C390.248 60.5942 390.564 59.195 390.564 57.6161C390.564 55.9418 390.259 54.4824 389.655 53.2386C389.046 51.9707 388.203 50.9183 387.121 50.0813C386.035 49.2199 384.745 48.574 383.24 48.1436C381.761 47.713 380.136 47.4857 378.369 47.4618H368.746V67.4835ZM422.051 42.008H456.899V47.7847H443.079V88.5093H456.899V94.2503H422.051V88.5093H435.555V47.7847H422.051V42.008ZM520.258 78.5346C519.919 80.9508 519.23 83.1748 518.202 85.2081C517.17 87.2178 515.826 88.9523 514.162 90.4112C512.526 91.8466 510.574 92.9709 508.302 93.7836C506.057 94.5734 503.55 94.9677 500.777 94.9677C498.402 94.9677 496.238 94.6686 494.285 94.0706C492.356 93.449 490.627 92.5999 489.098 91.5231C487.593 90.447 486.287 89.1792 485.178 87.7199C484.096 86.2609 483.184 84.6703 482.444 82.9479C481.732 81.226 481.193 79.4195 480.823 77.5301C480.477 75.6399 480.292 73.7262 480.269 71.7891V64.5051C480.292 62.5677 480.477 60.6539 480.823 58.7641C481.193 56.8747 481.732 55.0686 482.444 53.3463C483.184 51.6239 484.096 50.0333 485.178 48.574C486.287 47.0911 487.593 45.8113 489.098 44.7349C490.627 43.6585 492.356 42.8212 494.285 42.2232C496.211 41.6013 498.375 41.2903 500.777 41.2903C503.658 41.2903 506.23 41.6969 508.498 42.5103C510.77 43.2996 512.722 44.4359 514.359 45.9189C515.995 47.3781 517.305 49.1362 518.283 51.1934C519.284 53.2507 519.942 55.5231 520.258 58.0108H512.934C512.695 56.432 512.287 54.9609 511.706 53.5975C511.128 52.2341 510.346 51.0378 509.372 50.0093C508.394 48.9809 507.193 48.1794 505.768 47.6053C504.37 47.0073 502.707 46.7083 500.777 46.7083C499.037 46.7083 497.493 46.9714 496.145 47.4977C494.824 48 493.677 48.6939 492.699 49.5788C491.751 50.4638 490.947 51.4923 490.284 52.6646C489.653 53.8365 489.137 55.0804 488.74 56.3962C488.344 57.7117 488.055 59.0633 487.87 60.4507C487.712 61.8141 487.631 63.142 487.631 64.4335V71.7891C487.631 73.0806 487.712 74.4204 487.87 75.8078C488.055 77.1708 488.344 78.5224 488.74 79.8622C489.137 81.1777 489.653 82.4219 490.284 83.5939C490.92 84.7658 491.725 85.8064 492.699 86.7154C493.677 87.6007 494.824 88.306 496.145 88.8324C497.466 89.3348 499.01 89.586 500.777 89.586C502.707 89.586 504.37 89.3109 505.768 88.7605C507.193 88.2105 508.394 87.4447 509.372 86.4642C510.346 85.4593 511.128 84.2874 511.706 82.9479C512.287 81.5845 512.695 80.1134 512.934 78.5346H520.258Z" fill="#60FFD9"/>
</svg>
