<svg width="128" height="128" viewBox="0 0 128 128" fill="none" xmlns="http://www.w3.org/2000/svg">
<rect width="128" height="128" fill="#E5E5E5"/>
<path d="M64 128C99.3461 128 128 99.3461 128 64C128 28.6538 99.3461 0 64 0C28.6538 0 0 28.6538 0 64C0 99.3461 28.6538 128 64 128Z" fill="#60FFD9"/>
<path d="M70.6207 72.8276L46.1003 40.1216C45.6669 39.5916 44.7532 39.5916 44.3193 40.1216L13.4929 77.6602C13.2189 77.9913 13.1619 78.4441 13.3559 78.8189C13.5502 79.206 13.9497 79.4483 14.3836 79.4483H21.2339V77.2405V75.0323C21.2339 74.4249 21.7476 73.9284 22.3756 73.9284C23.0035 73.9284 23.5173 74.4249 23.5173 75.0323V77.2405V79.4483H26.9425V77.2405V75.0323C26.9425 74.4249 27.4562 73.9284 28.0842 73.9284C28.7122 73.9284 29.2259 74.4249 29.2259 75.0323V77.2405V79.4483H32.651V77.2405V75.0323C32.651 74.4249 33.1648 73.9284 33.7928 73.9284C34.4207 73.9284 34.9345 74.4249 34.9345 75.0323V77.2405V79.4483H38.3597V77.2405V75.0323C38.3597 74.4249 38.8734 73.9284 39.5014 73.9284C40.1293 73.9284 40.6431 74.4249 40.6431 75.0323V77.2405V79.4483H44.0682V77.2405V75.0323C44.0682 74.4249 44.582 73.9284 45.21 73.9284C45.8377 73.9284 46.3514 74.4249 46.3514 75.0323V77.2405V79.4483H49.777V77.2405V75.0323C49.777 74.4249 50.2903 73.9284 50.9184 73.9284C51.5465 73.9284 52.0602 74.4249 52.0602 75.0323V77.2405V79.4483H55.4854V77.2405V75.0323C55.4854 74.4249 55.9991 73.9284 56.6272 73.9284C57.2548 73.9284 57.7686 74.4249 57.7686 75.0323V77.2405V79.4483H61.1946V77.2405V75.0323C61.1946 74.4249 61.7075 73.9284 62.3356 73.9284C62.9641 73.9284 63.477 74.4249 63.477 75.0323V77.2405V79.4483H66.9025V77.2405V75.0323C66.9025 74.4249 67.4167 73.9284 68.0439 73.9284C68.672 73.9284 69.1862 74.8345 69.1862 74.8345V75.9269V77.2405V79.4483H70.6207V72.8276ZM36.0762 69.5119C35.6424 69.5119 35.2428 69.2692 35.0486 68.883C34.8546 68.5074 34.9116 68.0545 35.1857 67.7235L44.3193 56.6828C44.7532 56.1527 45.6669 56.1527 46.1003 56.6828L55.2342 67.7235C55.5083 68.0545 55.5652 68.5074 55.371 68.883C55.1768 69.2692 54.7774 69.5119 54.3439 69.5119H36.0762Z" fill="black"/>
<path d="M114.49 77.6602L81.6477 40.1216C81.1855 39.5916 80.2119 39.5916 79.7493 40.1216L52.9655 72.8276C57.163 67.7981 57.163 67.7981 52.9655 72.8276V79.4483H55.1539V77.2405V75.0323C55.1539 74.4249 55.7021 73.9284 56.3708 73.9284C57.0399 73.9284 57.5872 74.4249 57.5872 75.0323V77.2405V79.4483H61.2361V77.2405V75.0323C61.2361 74.4249 61.7834 73.9284 62.4525 73.9284C63.1221 73.9284 63.6694 74.4249 63.6694 75.0323V77.2405V79.4483H67.3183V77.2405V75.0323C67.3183 74.4249 67.8656 73.9284 68.5352 73.9284C69.2043 73.9284 69.7512 74.4249 69.7512 75.0323V77.2405V79.4483H73.4005V77.2405V75.0323C73.4005 74.4249 73.9478 73.9284 74.6165 73.9284C75.2856 73.9284 75.8338 74.4249 75.8338 75.0323V77.2405V79.4483H79.4827V77.2405V75.0323C79.4827 74.4249 80.03 73.9284 80.6987 73.9284C81.3678 73.9284 81.9151 74.4249 81.9151 75.0323V77.2405V79.4483H85.5645V77.2405V75.0323C85.5645 74.4249 86.1122 73.9284 86.7805 73.9284C87.45 73.9284 87.9973 74.4249 87.9973 75.0323V77.2405V79.4483H91.6467V77.2405V75.0323C91.6467 74.4249 92.1935 73.9284 92.8631 73.9284C93.5322 73.9284 94.0796 74.4249 94.0796 75.0323V77.2405V79.4483H97.7284V77.2405V75.0323C97.7284 74.4249 98.2762 73.9284 98.9449 73.9284C99.6136 73.9284 100.162 74.4249 100.162 75.0323V77.2405V79.4483H103.811V77.2405V75.0323C103.811 74.4249 104.358 73.9284 105.027 73.9284C105.696 73.9284 106.243 74.4249 106.243 75.0323V77.2405V79.4483H113.542C114.004 79.4483 114.43 79.206 114.636 78.8189C114.843 78.4441 114.783 77.9913 114.49 77.6602ZM70.9672 69.5119C70.5051 69.5119 70.0796 69.2692 69.8725 68.883C69.6664 68.5074 69.7273 68.0545 70.0191 67.7235L79.7493 56.6828C80.2119 56.1527 81.1855 56.1527 81.6477 56.6828L91.3792 67.7235C91.671 68.0545 91.7319 68.5074 91.5244 68.883C91.3178 69.2692 90.8924 69.5119 90.4298 69.5119H70.9672Z" fill="black"/>
</svg>
